# xmcd
#
# Track frame offsets:
# 150
# 13191
# 24559
# 33098
# 44291
# 55347
# 68805
# 79763
# 88129
# 98161
# 109909
# 120660
# 134173
# 144892
# 155958
# 167398
# 178895
# 190331
# 201662
# 212850
# 225048
# 236731
# 246767
# 259716
# 270157
# 281872
# 294084
# 305058
# 317617
# 329120
# 340754
#
# Disc length: 4689 seconds
#
#
# Revision: 3
# Processed by: cddbd v1.5.2PL0 Copyright (c) Steve Scherf et al.
# Submitted via: FreeRIP 2.945 
#
DISCID=cd124f1f
DTITLE=Willie Nelson - The Early Years - CD 2
DYEAR=1994
DGENRE=Country
TTITLE0=How Long Is Forever
TTITLE1=You Took My Happy Away
TTITLE2=Roly Poly
TTITLE3=Half A Man
TTITLE4=Lonely Little Mansion
TTITLE5=The Last Letter
TTITLE6=Second Fiddle
TTITLE7=Take My Word
TTITLE8=Right Or Wrong
TTITLE9=Feed It A Memory
TTITLE10=Let Me Talk To You
TTITLE11=The Way You See Me
TTITLE12=The Things I Might Have Been
TTITLE13=Home Motel
TTITLE14=Opportunity To Cry
TTITLE15=You Took My Happy Away
TTITLE16=I Hope So
TTITLE17=River Boy
TTITLE18=At The Bottom
TTITLE19=Cold War With You
TTITLE20=Seasons Of My Heart
TTITLE21=Blue Must Have Been The Color Of The Blues
TTITLE22=Am I Blue
TTITLE23=There'll Be No Teardrops Tonight
TTITLE24=Take Me As I Am (Or Let Me Go)
TTITLE25=Tomorrow Night
TTITLE26=I'll Walk Alone
TTITLE27=You Wouldn't Even Cross The Street
TTITLE28=I Hope So
TTITLE29=River Boy
TTITLE30=At The Bottom
EXTD=
EXTT0=
EXTT1=
EXTT2=
EXTT3=
EXTT4=
EXTT5=
EXTT6=
EXTT7=
EXTT8=
EXTT9=
EXTT10=
EXTT11=
EXTT12=
EXTT13=
EXTT14=
EXTT15=
EXTT16=
EXTT17=
EXTT18=
EXTT19=
EXTT20=
EXTT21=
EXTT22=
EXTT23=
EXTT24=
EXTT25=
EXTT26=
EXTT27=
EXTT28=
EXTT29=
EXTT30=
PLAYORDER=
